# xmcd
# 
# Track frame offsets:
#     225
#     19305
#     36886
#     51780
#     77872
#     89613
# 
# Disc length: 1494
# 
# Revision: 0
# Processed by: cddbd v1.5.2PL0 Copyright (c) Steve Scherf et al.
# Submitted via: BonkEnc v1.0.8
# 
DISCID=4905d306
DTITLE=danger!beuys - life, love, laser
DYEAR=2009
DGENRE=Indie
TTITLE0=fusion du coeur du réacteur
TTITLE1=life, love, laser
TTITLE2=bonus level
TTITLE3=happy cpu
TTITLE4=hammer time
TTITLE5=good oil texas
EXTD=http://dangerbeuys.de
EXTT0=http://dangerbeuys.de
EXTT1=http://dangerbeuys.de
EXTT2=http://dangerbeuys.de
EXTT3=http://dangerbeuys.de
EXTT4=http://dangerbeuys.de
EXTT5=http://dangerbeuys.de
PLAYORDER=
